<svg width="30" height="30" fill="none" xmlns="http://www.w3.org/2000/svg"><path d="M26.25 13.75A1.25 1.25 0 0025 15a10 10 0 01-10 10A10 10 0 017.913 7.95 9.912 9.912 0 0115 5c.8.005 1.596.097 2.375.275a1.25 1.25 0 10.587-2.425A13.176 13.176 0 0015 2.5a12.5 12.5 0 00-8.75 21.363A12.412 12.412 0 0015 27.5 12.5 12.5 0 0027.5 15a1.25 1.25 0 00-1.25-1.25z" fill="#EE464C"/><path d="M16.186 15l3.618-3.609a.845.845 0 00-1.195-1.194L15 13.814l-3.609-3.617a.845.845 0 10-1.194 1.194l3.617 3.61-3.617 3.61a.842.842 0 00.273 1.378.842.842 0 00.921-.184L15 16.187l3.61 3.618a.84.84 0 001.194 0 .84.84 0 000-1.195L16.186 15z" fill="#EE464C"/></svg>