<svg width="30" height="30" fill="none" xmlns="http://www.w3.org/2000/svg"><path d="M12.137 14.113a1.255 1.255 0 10-1.775 1.775l3.75 3.75A1.251 1.251 0 0015 20a1.251 1.251 0 00.9-.425l8.75-10a1.25 1.25 0 00-1.875-1.65l-7.775 9-2.863-2.812z" fill="#46EE9D"/><path d="M26.25 13.75A1.25 1.25 0 0025 15a10 10 0 01-10 10A10 10 0 017.913 7.95 9.912 9.912 0 0115 5c.8.005 1.596.097 2.375.275a1.25 1.25 0 10.587-2.425A13.176 13.176 0 0015 2.5a12.5 12.5 0 00-8.75 21.363A12.412 12.412 0 0015 27.5 12.5 12.5 0 0027.5 15a1.25 1.25 0 00-1.25-1.25z" fill="#46EE9D"/></svg>