<svg width="250" height="203" fill="none" xmlns="http://www.w3.org/2000/svg"><g clip-path="url(#clip0)"><path d="M75.094 186.086l-27.03-8.846-5.527 16.761 27.03 8.846 5.527-16.761z" fill="#EE464C"/><path d="M122.006 17.187l-61.98 80.162 166.667-41.248-92.838-41.898c-4.167-1.88-9.115-.648-11.849 2.984z" fill="#EBEBEB"/><path d="M59.115 97.933l62.63-81.006a10.102 10.102 0 0112.305-3.048l93.75 42.286L59.115 97.933zm70.638-84.249a9.383 9.383 0 00-7.487 3.697l-61.393 79.45L225.65 56.035l-91.927-41.508a9.507 9.507 0 00-3.971-.844z" fill="#E0E0E0"/><path d="M244.727 154.682L91.016 192.753c-3.711.908-7.487-1.362-8.464-5.059L60.026 97.349 227.28 55.906l22.526 90.28a7.062 7.062 0 01-5.078 8.496z" fill="#F0F0F0"/><path d="M216.992 60.9l-57.942 58.954-87.63-19.651L61.392 53.96c-1.172-4.994 1.888-9.923 6.901-11.155l126.693-31.39c5.013-1.233 10.091 1.816 11.328 6.81L216.992 60.9z" fill="#fff"/><path d="M151.042 115.249l-68.75 71.602c1.042 4.086 5.208 6.615 9.31 5.577l152.539-37.811c4.102-1.038 6.641-5.188 5.599-9.274l-.13-.584-89.974-31.585a8.271 8.271 0 00-8.594 2.075zm-21.894-65.623l-49.594 12.29 1.257 5.035 49.595-12.29-1.258-5.035zm63.574-2.218L82.73 74.665l1.415 5.664 109.991-27.257-1.414-5.664zm3.457 13.948L86.188 88.614l1.414 5.664 109.992-27.257-1.415-5.665zm2.324 18.417l-3.451 3.438-92.317 24.061-12.11-2.789-.456-1.362 109.636-27.11.456 1.881-1.758 1.881zM174.87 103.77l-41.601 10.312-12.696-2.918 62.175-15.371-7.878 7.977z" fill="#E0E0E0"/><path d="M148.568 117.844s-.065.065-.13.194c-.13.13-.261.325-.521.519-.456.454-1.107 1.168-1.888 2.076-1.693 1.751-4.102 4.345-7.096 7.458a6509.109 6509.109 0 01-23.503 24.516 2839.516 2839.516 0 01-23.828 24.256c-3.06 3.048-5.6 5.513-7.357 7.264-.846.843-1.562 1.492-2.018 1.946l-.52.518c-.131.13-.196.195-.196.13l.195-.194.52-.519c.457-.454 1.108-1.168 1.954-2.011a459.597 459.597 0 007.227-7.329c6.12-6.161 14.518-14.787 23.763-24.321a7449.757 7449.757 0 0123.632-24.451c2.995-3.113 5.469-5.642 7.162-7.393.846-.843 1.497-1.557 1.953-2.011l.521-.519.13-.129zm100.977 26.98c-.066.065-19.206-6.551-42.839-14.787-23.633-8.302-42.773-15.047-42.708-15.177.065-.065 19.205 6.551 42.838 14.788 23.633 8.301 42.774 15.046 42.709 15.176zm-29.818-86.778l-.131.13c-.13.13-.26.26-.39.454-.391.39-.912.973-1.563 1.686-1.367 1.492-3.32 3.632-5.729 6.226-4.883 5.254-11.654 12.388-19.271 20.236-7.617 7.847-14.583 14.787-19.661 19.846-2.539 2.464-4.623 4.475-6.055 5.901-.716.649-1.237 1.233-1.693 1.622-.195.194-.325.324-.455.389-.131.065-.131.13-.131.13l.131-.13c.13-.13.26-.259.39-.454.391-.389.912-.973 1.628-1.621 1.432-1.427 3.45-3.503 5.989-5.967 5.079-5.059 11.98-12.063 19.597-19.911 7.617-7.848 14.388-14.982 19.336-20.17 2.474-2.594 4.427-4.67 5.859-6.162.651-.713 1.237-1.232 1.563-1.686.195-.194.325-.324.39-.454.13 0 .196-.065.196-.065zm-71.159 59.798s-.065 0-.26-.065c-.196-.065-.391-.065-.651-.13-.586-.13-1.498-.389-2.605-.648-2.213-.584-5.468-1.362-9.44-2.27-8.008-1.881-19.075-4.346-31.38-6.94-12.24-2.659-23.372-5.124-31.38-7.069a557.398 557.398 0 01-9.44-2.4c-1.107-.324-1.953-.519-2.54-.713-.26-.065-.52-.13-.65-.195s-.196-.065-.196-.065.066 0 .26.065c.196.065.391.065.652.13.586.13 1.497.389 2.604.648 2.213.584 5.469 1.362 9.44 2.27 8.008 1.881 19.076 4.346 31.38 6.94 12.24 2.659 23.373 5.123 31.381 7.069 3.971.973 7.226 1.816 9.44 2.4 1.106.324 1.953.519 2.539.713.26.065.521.13.651.195s.195.065.195.065z" fill="#FAFAFA"/><path d="M216.992 60.9s-.065-.195-.195-.649-.261-1.037-.456-1.816c-.391-1.621-1.042-4.02-1.823-7.069-1.562-6.161-3.776-15.047-6.575-26.007-.326-1.362-.716-2.79-1.042-4.216-.195-.713-.391-1.427-.521-2.205-.065-.39-.195-.713-.325-1.103-.065-.389-.261-.713-.391-1.037-.586-1.427-1.628-2.66-2.865-3.632-1.302-.908-2.799-1.622-4.427-1.751-.846-.13-1.627-.065-2.474.065-.846.13-1.627.389-2.474.583-1.692.39-3.385.843-5.078 1.297-3.45.843-7.031 1.751-10.677 2.66-14.583 3.631-30.664 7.588-47.461 11.803a28675.152 28675.152 0 00-47.526 11.74c-3.646.907-7.226 1.75-10.677 2.658-.846.195-1.692.454-2.604.649-.846.194-1.693.389-2.474.778a9.02 9.02 0 00-3.841 3.113c-.52.649-.846 1.427-1.172 2.14-.26.779-.456 1.557-.52 2.335-.196 1.557.26 3.113.585 4.605.651 3.048 1.302 5.902 1.888 8.69 2.344 11.091 4.297 20.041 5.6 26.268.65 3.113 1.171 5.512 1.496 7.134.196.843.326 1.427.391 1.88.065.39.13.649.13.649s-.065-.194-.13-.648-.26-1.038-.39-1.881c-.391-1.622-.912-4.021-1.563-7.134-1.367-6.227-3.32-15.177-5.73-26.202-.585-2.79-1.236-5.643-1.887-8.691-.326-1.492-.781-3.048-.586-4.734.065-.844.26-1.622.52-2.4.326-.779.652-1.557 1.173-2.205.52-.714 1.041-1.362 1.757-1.881.651-.584 1.433-.973 2.214-1.362.781-.39 1.693-.519 2.539-.778.846-.195 1.693-.454 2.604-.649 3.45-.843 7.031-1.751 10.677-2.66 14.584-3.631 30.664-7.587 47.526-11.803a28475.56 28475.56 0 0047.526-11.739c3.646-.908 7.227-1.751 10.677-2.659 1.758-.454 3.451-.843 5.144-1.232.846-.195 1.692-.454 2.539-.584a8.333 8.333 0 012.539 0c1.692.195 3.255.908 4.557 1.816 1.302.973 2.344 2.27 2.93 3.697.13.389.325.713.39 1.102.131.39.196.714.326 1.103.195.713.391 1.492.521 2.205.325 1.427.716 2.854 1.041 4.216 2.735 11.025 4.948 19.91 6.446 26.072a506.082 506.082 0 011.758 7.07c.195.778.325 1.426.455 1.815-.13.39-.065.584-.065.584z" fill="#E0E0E0"/><path d="M40.82 16.344l-9.505 7.199.456 13.814-8.724-6.875-4.818 4.086L0 12.128l40.82 4.216z" fill="#EE464C"/><path d="M27.734 26.526c0 .39 4.037 10.831 4.037 10.831l-8.724-6.875 4.687-3.956z" fill="#EE464C"/><path opacity=".3" d="M27.734 26.526c0 .39 4.037 10.831 4.037 10.831l-8.724-6.875 4.687-3.956z" fill="#000"/><path d="M0 12.128l27.734 14.398 4.037 10.831-.456-13.814L0 12.128z" fill="#EE464C"/><path opacity=".1" d="M0 12.128l27.734 14.398 4.037 10.831-.456-13.814L0 12.128z" fill="#000"/><path d="M52.278 35.541c-.065.13-1.172-.065-2.539-.389-1.367-.324-2.474-.584-2.409-.778 0-.13 1.172-.065 2.54.26 1.432.323 2.473.777 2.408.907zm9.31 3.956c-.065.13-1.107-.324-2.344-.972-1.237-.649-2.213-1.168-2.213-1.298.065-.13 1.172.195 2.409.844 1.302.648 2.213 1.297 2.148 1.426zm8.073 6.097c-.13.13-.977-.584-2.018-1.492-1.042-.908-1.888-1.686-1.823-1.816.065-.13 1.107.454 2.148 1.362 1.042.973 1.823 1.881 1.693 1.946zm6.12 7.977c-.13.065-.781-.843-1.563-2.01-.78-1.168-1.367-2.14-1.237-2.205.13-.065.912.713 1.693 1.88.847 1.233 1.237 2.27 1.107 2.335zm3.516 9.469c-.13 0-.456-1.038-.847-2.4-.39-1.361-.65-2.4-.52-2.464.13-.065.65.973 1.041 2.335.39 1.362.456 2.53.326 2.53zm.521 10.053c-.13 0-.13-1.168-.13-2.53.065-1.362.065-2.529.26-2.529.13 0 .325 1.103.325 2.53-.065 1.426-.325 2.529-.455 2.529zm-2.605 9.728c-.13-.064.26-1.102.717-2.4.455-1.296.846-2.334.976-2.334.13.065 0 1.167-.52 2.53-.456 1.296-1.042 2.27-1.173 2.204zm-5.859 8.172c-.13-.13.651-.973 1.563-2.01.911-1.038 1.627-1.881 1.757-1.816.13.064-.455 1.102-1.367 2.14-.976 1.102-1.888 1.751-1.953 1.686zm-8.529 5.448c-.065-.13.977-.648 2.149-1.297 1.237-.649 2.213-1.167 2.343-1.038.066.13-.78.843-2.083 1.492-1.237.649-2.344.973-2.409.843zm-9.83 2.075c0-.13 1.106-.259 2.474-.454 1.367-.194 2.474-.324 2.539-.13.065.13-1.042.52-2.474.65-1.433.194-2.54.064-2.54-.066zm-9.896-1.88c.065-.13 1.107.194 2.474.583 1.302.39 2.409.714 2.409.844s-1.172.064-2.54-.325c-1.432-.389-2.408-.972-2.343-1.102zm-7.031-6.876c.13-.064.586.974 1.367 2.076.781 1.103 1.562 1.946 1.432 2.076-.065.13-1.042-.584-1.888-1.751-.781-1.233-1.042-2.4-.911-2.4zm4.296-7.847c.065.13-1.041.454-2.148 1.297-1.107.779-1.693 1.752-1.823 1.687-.13-.065.26-1.233 1.497-2.076 1.237-.972 2.41-1.037 2.474-.908zm8.659 3.567c-.13.065-.716-.843-1.758-1.816-.977-.908-2.018-1.362-1.953-1.491 0-.13 1.237.13 2.344 1.102 1.041 1.038 1.497 2.14 1.367 2.205zm.326 9.794c-.13-.065.195-1.103.455-2.465.26-1.362.326-2.464.456-2.464s.326 1.167.065 2.594c-.26 1.362-.846 2.4-.977 2.335zm-6.576 7.523c-.065-.13.781-.843 1.823-1.751 1.042-.908 1.888-1.686 2.018-1.557.13.065-.586 1.038-1.627 1.946-1.107.908-2.149 1.427-2.214 1.362zm-8.984 4.605c-.065-.13.911-.714 2.213-1.297 1.237-.584 2.344-.973 2.41-.844.064.13-.912.714-2.214 1.298-1.303.648-2.344.972-2.41.843zm-9.049 4.605c-.066-.13.846-.779 2.017-1.557 1.237-.713 2.344-1.102 2.344-.973.065.13-.911.714-2.083 1.427-1.172.714-2.214 1.232-2.279 1.103zm-7.618 6.55c-.13-.065.586-1.038 1.563-2.01.976-.973 1.953-1.622 2.018-1.557.065.13-.716.908-1.693 1.881-.976 1.038-1.823 1.816-1.888 1.686zm-5.859 8.302c-.13-.065.325-1.103 1.042-2.335.716-1.167 1.497-2.075 1.627-1.946.13.065-.456 1.038-1.172 2.27-.716 1.103-1.367 2.076-1.497 2.011zm-3.646 9.339c-.13-.065 0-1.167.455-2.529.456-1.362.977-2.335 1.107-2.27.13.065-.195 1.167-.586 2.464-.455 1.362-.846 2.4-.976 2.335zm-1.367 9.988c-.13 0-.26-1.167-.196-2.529.066-1.427.391-2.53.521-2.465.13 0 .13 1.167 0 2.529-.065 1.362-.13 2.465-.325 2.465zm1.367 9.988c-.13.065-.52-1.038-.781-2.4-.326-1.362-.326-2.529-.196-2.529s.391 1.102.717 2.399c.26 1.362.39 2.53.26 2.53zm3.906 9.339c-.13.065-.781-.843-1.432-2.14-.651-1.233-.977-2.335-.846-2.4.13-.065.65.908 1.302 2.205.65 1.232 1.106 2.205.976 2.335zm6.055 8.042c-.13.13-.977-.648-1.888-1.686-.912-1.103-1.497-2.075-1.367-2.14.13-.065.911.778 1.758 1.816.911 1.037 1.627 1.881 1.497 2.01zm7.812 6.421c-.064.13-1.106-.389-2.278-1.232s-1.953-1.622-1.823-1.751c.065-.13 1.042.518 2.148 1.362 1.107.778 2.019 1.491 1.954 1.621zm9.115 4.345c-.065.13-1.172-.064-2.474-.648-1.302-.519-2.279-1.103-2.213-1.232.065-.13 1.106.259 2.408.778 1.303.519 2.344.973 2.279 1.102z" fill="#263238"/><path d="M32.247 160.541L21.73 157.1l-2.153 6.532 10.515 3.441 2.154-6.532z" fill="#EE464C"/><path opacity=".3" d="M32.247 160.541L21.73 157.1l-2.153 6.532 10.515 3.441 2.154-6.532z" fill="#000"/><path d="M32.227 160.519c.065.13-2.67 1.232-6.12 2.465l-.195.065-.13-.13a.897.897 0 01-.196-.26c-2.278-2.983-4.036-5.512-3.906-5.642.13-.065 2.084 2.27 4.362 5.318.065.065.13.13.195.26l-.325-.065c3.515-1.233 6.25-2.141 6.315-2.011z" fill="#EE464C"/><path opacity=".1" d="M32.227 160.519c.065.13-2.67 1.232-6.12 2.465l-.195.065-.13-.13a.897.897 0 01-.196-.26c-2.278-2.983-4.036-5.512-3.906-5.642.13-.065 2.084 2.27 4.362 5.318.065.065.13.13.195.26l-.325-.065c3.515-1.233 6.25-2.141 6.315-2.011z" fill="#000"/><path d="M24.74 161.103c.065.13-1.042.778-2.474 1.492-1.432.713-2.67 1.167-2.734 1.037-.066-.129 1.041-.778 2.474-1.491 1.497-.714 2.669-1.168 2.734-1.038z" fill="#EE464C"/><path opacity=".1" d="M24.74 161.103c.065.13-1.042.778-2.474 1.492-1.432.713-2.67 1.167-2.734 1.037-.066-.129 1.041-.778 2.474-1.491 1.497-.714 2.669-1.168 2.734-1.038z" fill="#000"/><path d="M30.274 167.134c-.13.065-.716-1.037-1.367-2.399-.651-1.427-1.042-2.659-.847-2.659.13 0 .716 1.037 1.367 2.399.586 1.427.977 2.595.847 2.659z" fill="#EE464C"/><path opacity=".1" d="M30.274 167.134c-.13.065-.716-1.037-1.367-2.399-.651-1.427-1.042-2.659-.847-2.659.13 0 .716 1.037 1.367 2.399.586 1.427.977 2.595.847 2.659z" fill="#000"/><path d="M75.065 186.072c0 .065-.39.195-1.237.519-.911.325-2.018.779-3.385 1.297-2.865 1.103-6.836 2.53-11.263 4.151l-.195.065-.13-.13c-.13-.194-.326-.389-.456-.583-2.93-3.892-5.6-7.394-7.487-9.988-.912-1.232-1.628-2.27-2.214-3.048-.52-.714-.781-1.168-.781-1.168s.325.324.911 1.038a62.764 62.764 0 012.344 2.983c1.953 2.53 4.688 6.032 7.617 9.858.13.195.326.389.456.584l-.325-.065c4.427-1.621 8.398-3.048 11.328-4.021 1.367-.454 2.539-.843 3.45-1.167.912-.26 1.367-.389 1.367-.325z" fill="#EE464C"/><g opacity=".2"><path d="M75.065 186.072c0 .065-.39.195-1.237.519-.911.325-2.018.779-3.385 1.297-2.865 1.103-6.836 2.53-11.263 4.151l-.195.065-.13-.13c-.13-.194-.326-.389-.456-.583-2.93-3.892-5.6-7.394-7.487-9.988-.912-1.232-1.628-2.27-2.214-3.048-.52-.714-.781-1.168-.781-1.168s.325.324.911 1.038a62.764 62.764 0 012.344 2.983c1.953 2.53 4.688 6.032 7.617 9.858.13.195.326.389.456.584l-.325-.065c4.427-1.621 8.398-3.048 11.328-4.021 1.367-.454 2.539-.843 3.45-1.167.912-.26 1.367-.389 1.367-.325z" fill="#000" opacity=".5"/></g><path d="M55.86 187.499c.065.13-2.865 1.687-6.576 3.503-3.71 1.816-6.706 3.113-6.77 2.983-.066-.13 2.864-1.686 6.575-3.502 3.646-1.816 6.706-3.113 6.77-2.984z" fill="#EE464C"/><g opacity=".5"><path d="M55.86 187.499c.065.13-2.865 1.687-6.576 3.503-3.71 1.816-6.706 3.113-6.77 2.983-.066-.13 2.864-1.686 6.575-3.502 3.646-1.816 6.706-3.113 6.77-2.984z" fill="#000" opacity=".2"/></g><path d="M69.71 202.215c-.121.061-1.406-2.621-2.875-6.034-1.468-3.353-2.57-6.156-2.447-6.217.122-.061 1.407 2.621 2.875 6.034 1.469 3.352 2.57 6.156 2.448 6.217z" fill="#EE464C"/><g opacity=".5"><path d="M69.71 202.215c-.121.061-1.406-2.621-2.875-6.034-1.468-3.353-2.57-6.156-2.447-6.217.122-.061 1.407 2.621 2.875 6.034 1.469 3.352 2.57 6.156 2.448 6.217z" fill="#000" opacity=".2"/></g><path d="M49.544 181.338c-1.888 1.362-4.492.973-5.924-.908-1.367-1.881-.977-4.475.911-5.902 1.888-1.362 4.492-.973 5.925.908 1.367 1.881.976 4.54-.912 5.902z" fill="#263238"/><path d="M49.674 177.187c.066.065-1.237.843-2.864 1.751-.26.13-.456.26-.651.389l-.13.065-.066-.129c-.716-1.298-1.236-2.27-1.171-2.27.065-.065.65.908 1.367 2.14l-.195-.065c.195-.13.455-.259.65-.389 1.693-.908 3.06-1.557 3.06-1.492z" fill="#fff"/><path d="M57.724 163.464l-14.165-4.635-2.886 8.75 14.165 4.635 2.886-8.75z" fill="#EE464C"/><path opacity=".2" d="M57.724 163.464l-14.165-4.635-2.886 8.75 14.165 4.635 2.886-8.75z" fill="#000"/><path d="M57.747 163.502s-.195.13-.65.26c-.456.194-1.043.389-1.759.713-1.497.584-3.58 1.362-5.859 2.205l-.065.065-.065-.065c-.065-.129-.13-.194-.26-.324a169.438 169.438 0 01-3.907-5.253c-.456-.649-.846-1.168-1.172-1.622l-.39-.583s.195.194.455.519c.326.389.716.908 1.237 1.556a126.23 126.23 0 013.972 5.189c.065.129.13.194.26.324l-.13-.065c2.344-.843 4.427-1.557 5.924-2.075.716-.26 1.303-.454 1.823-.584.326-.26.521-.324.586-.26z" fill="#EE464C"/><path opacity=".2" d="M57.747 163.502s-.195.13-.65.26c-.456.194-1.043.389-1.759.713-1.497.584-3.58 1.362-5.859 2.205l-.065.065-.065-.065c-.065-.129-.13-.194-.26-.324a169.438 169.438 0 01-3.907-5.253c-.456-.649-.846-1.168-1.172-1.622l-.39-.583s.195.194.455.519c.326.389.716.908 1.237 1.556a126.23 126.23 0 013.972 5.189c.065.129.13.194.26.324l-.13-.065c2.344-.843 4.427-1.557 5.924-2.075.716-.26 1.303-.454 1.823-.584.326-.26.521-.324.586-.26z" fill="#EE464C"/><path d="M47.656 164.216c.065.065-1.497.908-3.45 1.816s-3.516 1.621-3.581 1.557c-.065-.065 1.497-.908 3.45-1.816 1.954-.908 3.516-1.622 3.581-1.557z" fill="#EE464C"/><path opacity=".2" d="M47.656 164.216c.065.065-1.497.908-3.45 1.816s-3.516 1.621-3.581 1.557c-.065-.065 1.497-.908 3.45-1.816 1.954-.908 3.516-1.622 3.581-1.557z" fill="#EE464C"/><path d="M55.078 172.323c-.065 0-.78-1.492-1.627-3.373-.847-1.881-1.433-3.437-1.367-3.437.065 0 .78 1.492 1.627 3.372.846 1.881 1.432 3.438 1.367 3.438z" fill="#EE464C"/><path opacity=".2" d="M55.078 172.323c-.065 0-.78-1.492-1.627-3.373-.847-1.881-1.433-3.437-1.367-3.437.065 0 .78 1.492 1.627 3.372.846 1.881 1.432 3.438 1.367 3.438z" fill="#EE464C"/><path d="M208.724 19.651c-2.148 8.432-10.742 13.555-19.206 11.415-8.463-2.14-13.606-10.701-11.458-19.132 2.149-8.497 10.742-13.555 19.206-11.415 8.463 2.14 13.607 10.701 11.458 19.132z" fill="#18191F"/><path d="M199.284 7.2c.261.129-1.497 5.382-4.036 11.803-.391.908-.716 1.816-1.042 2.724l-.195.454-.456-.195c-5.143-1.945-8.854-3.567-8.789-3.826.065-.26 3.971.973 9.18 2.854l-.651.324c.325-.843.651-1.751 1.041-2.724 2.409-6.42 4.623-11.48 4.948-11.415z" fill="#fff"/></g><defs><clipPath id="clip0"><path fill="#fff" d="M0 0h250v203H0z"/></clipPath></defs></svg>