<svg width="30" height="30" viewBox="0 0 30 30" fill="none" xmlns="http://www.w3.org/2000/svg">
<path d="M12.1372 14.1129C11.9019 13.8775 11.5826 13.7452 11.2497 13.7452C10.9169 13.7452 10.5976 13.8775 10.3622 14.1129C10.1269 14.3482 9.99463 14.6675 9.99463 15.0004C9.99463 15.3332 10.1269 15.6525 10.3622 15.8879L14.1122 19.6379C14.229 19.7537 14.3676 19.8454 14.5199 19.9076C14.6722 19.9698 14.8352 20.0013 14.9997 20.0004C15.1709 19.9949 15.3391 19.9544 15.4939 19.8813C15.6487 19.8082 15.7868 19.7041 15.8997 19.5754L24.6497 9.57536C24.8518 9.32452 24.9492 9.00537 24.9217 8.68446C24.8942 8.36355 24.7438 8.06565 24.502 7.85287C24.2602 7.64009 23.9456 7.52886 23.6238 7.54236C23.302 7.55587 22.9979 7.69307 22.7747 7.92536L14.9997 16.9254L12.1372 14.1129Z" fill="#46EE9D"/>
<path d="M26.25 13.7502C25.9185 13.7502 25.6005 13.8819 25.3661 14.1164C25.1317 14.3508 25 14.6687 25 15.0002C25 17.6524 23.9464 20.1959 22.0711 22.0713C20.1957 23.9467 17.6522 25.0002 15 25.0002C13.0251 24.9993 11.0947 24.4137 9.45221 23.3172C7.80971 22.2206 6.52867 20.6623 5.77061 18.8387C5.01256 17.0151 4.81144 15.0079 5.19262 13.0701C5.5738 11.1324 6.52021 9.35085 7.91251 7.95024C8.83839 7.01197 9.94211 6.2678 11.1591 5.76126C12.3761 5.25473 13.6818 4.99601 15 5.00024C15.7993 5.00525 16.5957 5.09746 17.375 5.27524C17.5381 5.32569 17.7098 5.34219 17.8795 5.32374C18.0492 5.30529 18.2133 5.25228 18.3618 5.16797C18.5102 5.08366 18.6398 4.96983 18.7425 4.83352C18.8453 4.69721 18.919 4.54129 18.9592 4.37539C18.9994 4.20948 19.0052 4.0371 18.9762 3.86887C18.9473 3.70064 18.8841 3.54013 18.7907 3.39723C18.6974 3.25434 18.5757 3.13208 18.4332 3.03801C18.2908 2.94393 18.1306 2.88003 17.9625 2.85024C16.9914 2.6218 15.9976 2.50438 15 2.50024C12.5304 2.51307 10.12 3.25714 8.07288 4.63856C6.02577 6.01997 4.43372 7.97682 3.49766 10.2622C2.56159 12.5475 2.32346 15.0589 2.8133 17.4794C3.30315 19.9 4.49902 22.1212 6.25001 23.8627C8.57087 26.1847 11.7171 27.4926 15 27.5002C18.3152 27.5002 21.4946 26.1833 23.8388 23.8391C26.1831 21.4949 27.5 18.3155 27.5 15.0002C27.5 14.6687 27.3683 14.3508 27.1339 14.1164C26.8995 13.8819 26.5815 13.7502 26.25 13.7502Z" fill="#46EE9D"/>
</svg>
