<svg width="30" height="30" viewBox="0 0 30 30" fill="none" xmlns="http://www.w3.org/2000/svg">
<path d="M26.25 13.7502C25.9185 13.7502 25.6005 13.8819 25.3661 14.1164C25.1317 14.3508 25 14.6687 25 15.0002C25 17.6524 23.9464 20.1959 22.0711 22.0713C20.1957 23.9467 17.6522 25.0002 15 25.0002C13.0251 24.9993 11.0947 24.4137 9.45221 23.3172C7.80971 22.2206 6.52867 20.6623 5.77061 18.8387C5.01256 17.0151 4.81144 15.0079 5.19262 13.0701C5.5738 11.1324 6.52021 9.35085 7.91251 7.95024C8.83839 7.01197 9.94211 6.2678 11.1591 5.76126C12.3761 5.25472 13.6818 4.99601 15 5.00024C15.7993 5.00525 16.5957 5.09746 17.375 5.27524C17.5381 5.32569 17.7098 5.34219 17.8795 5.32374C18.0492 5.30529 18.2133 5.25228 18.3618 5.16797C18.5102 5.08366 18.6398 4.96983 18.7425 4.83352C18.8453 4.69721 18.919 4.54129 18.9592 4.37539C18.9994 4.20948 19.0052 4.0371 18.9762 3.86887C18.9473 3.70064 18.8841 3.54013 18.7907 3.39723C18.6974 3.25434 18.5757 3.13208 18.4332 3.03801C18.2908 2.94393 18.1306 2.88003 17.9625 2.85024C16.9914 2.6218 15.9976 2.50438 15 2.50024C12.5304 2.51307 10.12 3.25714 8.07288 4.63856C6.02577 6.01997 4.43372 7.97682 3.49766 10.2622C2.56159 12.5475 2.32346 15.0589 2.8133 17.4794C3.30315 19.9 4.49902 22.1212 6.25001 23.8627C8.57087 26.1847 11.7171 27.4926 15 27.5002C18.3152 27.5002 21.4946 26.1833 23.8388 23.8391C26.1831 21.4949 27.5 18.3154 27.5 15.0002C27.5 14.6687 27.3683 14.3508 27.1339 14.1164C26.8995 13.8819 26.5815 13.7502 26.25 13.7502Z" fill="#EE464C"/>
<path d="M16.186 15.0007L19.8038 11.3914C19.9622 11.2329 20.0513 11.0181 20.0513 10.794C20.0513 10.57 19.9622 10.3551 19.8038 10.1967C19.6454 10.0382 19.4305 9.94922 19.2065 9.94922C18.9824 9.94922 18.7675 10.0382 18.6091 10.1967L14.9997 13.8144L11.3904 10.1967C11.2319 10.0382 11.0171 9.94922 10.793 9.94922C10.5689 9.94922 10.3541 10.0382 10.1956 10.1967C10.0372 10.3551 9.94821 10.57 9.94821 10.794C9.94821 11.0181 10.0372 11.2329 10.1956 11.3914L13.8134 15.0007L10.1956 18.6101C10.1168 18.6883 10.0542 18.7814 10.0115 18.8839C9.96877 18.9864 9.94678 19.0964 9.94678 19.2075C9.94678 19.3185 9.96877 19.4285 10.0115 19.531C10.0542 19.6336 10.1168 19.7266 10.1956 19.8048C10.2739 19.8837 10.3669 19.9463 10.4694 19.989C10.572 20.0317 10.6819 20.0537 10.793 20.0537C10.9041 20.0537 11.014 20.0317 11.1166 19.989C11.2191 19.9463 11.3121 19.8837 11.3904 19.8048L14.9997 16.187L18.6091 19.8048C18.6873 19.8837 18.7804 19.9463 18.8829 19.989C18.9854 20.0317 19.0954 20.0537 19.2065 20.0537C19.3175 20.0537 19.4275 20.0317 19.53 19.989C19.6326 19.9463 19.7256 19.8837 19.8038 19.8048C19.8827 19.7266 19.9453 19.6336 19.988 19.531C20.0307 19.4285 20.0527 19.3185 20.0527 19.2075C20.0527 19.0964 20.0307 18.9864 19.988 18.8839C19.9453 18.7814 19.8827 18.6883 19.8038 18.6101L16.186 15.0007Z" fill="#EE464C"/>
</svg>
