<svg width="250" height="203" viewBox="0 0 250 203" fill="none" xmlns="http://www.w3.org/2000/svg">
<g clip-path="url(#clip0)">
<path d="M75.0943 186.086L48.0635 177.24L42.5367 194.001L69.5675 202.847L75.0943 186.086Z" fill="#EE464C"/>
<path d="M122.006 17.1868L60.0264 97.3492L226.693 56.1006L133.855 14.2035C129.688 12.3226 124.74 13.5549 122.006 17.1868Z" fill="#EBEBEB"/>
<path d="M59.1147 97.9328L121.745 16.9274C124.61 13.1657 129.688 11.8686 134.05 13.8791L227.8 56.1654L59.1147 97.9328ZM129.753 13.6845C126.888 13.6845 124.089 14.9817 122.266 17.3813L60.8726 96.8302L225.651 56.0357L133.724 14.5277C132.422 13.944 131.12 13.6845 129.753 13.6845Z" fill="#E0E0E0"/>
<path d="M244.727 154.682L91.016 192.753C87.305 193.661 83.529 191.391 82.5524 187.694L60.0264 97.3491L227.279 55.906L249.805 146.186C250.716 149.948 248.438 153.709 244.727 154.682Z" fill="#F0F0F0"/>
<path d="M216.992 60.8999L159.05 119.854L71.4194 100.203L61.3934 53.9603C60.2215 48.9664 63.2814 44.0373 68.2944 42.8051L194.987 11.4146C200 10.1824 205.078 13.2306 206.315 18.2245L216.992 60.8999Z" fill="white"/>
<path d="M151.042 115.249L82.292 186.851C83.3337 190.937 87.5003 193.466 91.6019 192.428L244.141 154.617C248.243 153.579 250.782 149.429 249.74 145.343L249.61 144.759L159.636 113.174C156.576 112.136 153.256 112.979 151.042 115.249Z" fill="#E0E0E0"/>
<path d="M129.148 49.6263L79.5542 61.9165L80.8115 66.9514L130.406 54.6612L129.148 49.6263Z" fill="#E0E0E0"/>
<path d="M192.722 47.4076L82.7305 74.6652L84.1449 80.3295L194.136 53.0719L192.722 47.4076Z" fill="#E0E0E0"/>
<path d="M196.179 61.3563L86.188 88.6139L87.6024 94.2782L197.594 67.0206L196.179 61.3563Z" fill="#E0E0E0"/>
<path d="M198.503 79.7731L195.052 83.2105L102.735 107.272L90.6252 104.483L90.1694 103.121L199.805 76.0114L200.261 77.8922L198.503 79.7731Z" fill="#E0E0E0"/>
<path d="M174.87 103.77L133.269 114.082L120.573 111.164L182.748 95.7927L174.87 103.77Z" fill="#E0E0E0"/>
<path d="M148.568 117.844C148.568 117.844 148.503 117.909 148.438 118.038C148.308 118.168 148.177 118.363 147.917 118.557C147.461 119.011 146.81 119.725 146.029 120.633C144.336 122.384 141.927 124.978 138.933 128.091C132.943 134.382 124.61 143.073 115.43 152.607C106.185 162.141 97.7217 170.702 91.6019 176.863C88.542 179.911 86.0029 182.376 84.2451 184.127C83.3988 184.97 82.6826 185.619 82.2269 186.073C82.0316 186.267 81.8363 186.462 81.7061 186.591C81.5758 186.721 81.5107 186.786 81.5107 186.721C81.5107 186.721 81.5758 186.656 81.7061 186.527C81.8363 186.397 82.0316 186.202 82.2269 186.008C82.6826 185.554 83.3337 184.84 84.18 183.997C85.9378 182.246 88.4118 179.781 91.4066 176.668C97.5264 170.507 105.925 161.881 115.17 152.347C124.349 142.813 132.748 134.123 138.802 127.896C141.797 124.783 144.271 122.254 145.964 120.503C146.81 119.66 147.461 118.946 147.917 118.492C148.112 118.298 148.308 118.103 148.438 117.973C148.503 117.909 148.568 117.844 148.568 117.844Z" fill="#FAFAFA"/>
<path d="M249.545 144.824C249.479 144.889 230.339 138.273 206.706 130.037C183.073 121.735 163.933 114.99 163.998 114.86C164.063 114.795 183.203 121.411 206.836 129.648C230.469 137.949 249.61 144.694 249.545 144.824Z" fill="#FAFAFA"/>
<path d="M219.727 58.0463C219.727 58.0463 219.661 58.1111 219.596 58.176C219.466 58.3057 219.336 58.4354 219.206 58.63C218.815 59.0191 218.294 59.6028 217.643 60.3162C216.276 61.8079 214.323 63.9482 211.914 66.5424C207.031 71.7958 200.26 78.93 192.643 86.7776C185.026 94.6252 178.06 101.565 172.982 106.624C170.443 109.088 168.359 111.099 166.927 112.525C166.211 113.174 165.69 113.758 165.234 114.147C165.039 114.341 164.909 114.471 164.779 114.536C164.648 114.601 164.648 114.666 164.648 114.666C164.648 114.666 164.714 114.601 164.779 114.536C164.909 114.406 165.039 114.277 165.169 114.082C165.56 113.693 166.081 113.109 166.797 112.461C168.229 111.034 170.247 108.958 172.786 106.494C177.865 101.435 184.766 94.4306 192.383 86.583C200 78.7354 206.771 71.6012 211.719 66.4127C214.193 63.8185 216.146 61.7431 217.578 60.2514C218.229 59.538 218.815 59.0191 219.141 58.5651C219.336 58.3705 219.466 58.2408 219.531 58.1111C219.661 58.1111 219.727 58.0463 219.727 58.0463Z" fill="#FAFAFA"/>
<path d="M148.568 117.844C148.568 117.844 148.503 117.844 148.308 117.779C148.112 117.714 147.917 117.714 147.657 117.649C147.071 117.519 146.159 117.26 145.052 117.001C142.839 116.417 139.584 115.639 135.612 114.731C127.604 112.85 116.537 110.385 104.232 107.791C91.9925 105.132 80.8597 102.667 72.8519 100.722C68.8805 99.7488 65.6253 98.9057 63.4118 98.322C62.305 97.9977 61.4587 97.8031 60.8727 97.6085C60.6123 97.5437 60.3519 97.4788 60.2217 97.414C60.0915 97.3491 60.0264 97.3491 60.0264 97.3491C60.0264 97.3491 60.0915 97.3491 60.2868 97.414C60.4821 97.4788 60.6774 97.4788 60.9378 97.5437C61.5238 97.6734 62.4352 97.9328 63.542 98.1922C65.7555 98.776 69.0107 99.5542 72.9821 100.462C80.9899 102.343 92.0576 104.808 104.362 107.402C116.602 110.061 127.735 112.525 135.743 114.471C139.714 115.444 142.969 116.287 145.183 116.871C146.289 117.195 147.136 117.39 147.722 117.584C147.982 117.649 148.243 117.714 148.373 117.779C148.503 117.844 148.568 117.844 148.568 117.844Z" fill="#FAFAFA"/>
<path d="M216.992 60.8999C216.992 60.8999 216.927 60.7053 216.797 60.2513C216.667 59.7973 216.536 59.2136 216.341 58.4354C215.95 56.814 215.299 54.4143 214.518 51.366C212.956 45.2047 210.742 36.3194 207.943 25.3587C207.617 23.9967 207.227 22.5699 206.901 21.143C206.706 20.4296 206.51 19.7162 206.38 18.9379C206.315 18.5488 206.185 18.2245 206.055 17.8354C205.99 17.4462 205.794 17.1219 205.664 16.7977C205.078 15.3708 204.036 14.1386 202.799 13.1657C201.497 12.2577 200 11.5443 198.372 11.4146C197.526 11.2849 196.745 11.3497 195.898 11.4795C195.052 11.6092 194.271 11.8686 193.424 12.0632C191.732 12.4523 190.039 12.9063 188.346 13.3603C184.896 14.2034 181.315 15.1114 177.669 16.0194C163.086 19.6513 147.005 23.6076 130.208 27.8232C113.346 31.974 97.3307 35.9303 82.6823 39.5622C79.0364 40.4702 75.4557 41.3133 72.0052 42.2213C71.1588 42.4159 70.3125 42.6753 69.401 42.8699C68.5547 43.0644 67.7083 43.259 66.9271 43.6481C66.1458 43.9724 65.4297 44.4264 64.7786 44.9453C64.1276 45.4641 63.5416 46.1127 63.0859 46.7612C62.5651 47.4098 62.2396 48.1881 61.914 48.9015C61.6536 49.6798 61.4583 50.458 61.3932 51.2363C61.1979 52.7929 61.6536 54.3494 61.9791 55.8411C62.6302 58.8894 63.2812 61.743 63.8672 64.5319C66.2109 75.6223 68.164 84.5724 69.4661 90.7986C70.1172 93.9117 70.638 96.3114 70.9635 97.9328C71.1588 98.7759 71.289 99.3596 71.3541 99.8136C71.4192 100.203 71.4844 100.462 71.4844 100.462C71.4844 100.462 71.4192 100.268 71.3541 99.8136C71.289 99.3596 71.0937 98.7759 70.9635 97.9328C70.5729 96.3114 70.0521 93.9117 69.401 90.7986C68.0338 84.5724 66.0807 75.6223 63.6719 64.5967C63.0859 61.8079 62.4349 58.9542 61.7838 55.906C61.4583 54.4143 61.0026 52.8577 61.1979 51.1715C61.263 50.3283 61.4583 49.5501 61.7187 48.7718C62.0443 47.9935 62.3698 47.2152 62.8906 46.5667C63.4114 45.8533 63.9323 45.2047 64.6484 44.6858C65.2995 44.1021 66.0807 43.713 66.862 43.3239C67.6432 42.9347 68.5547 42.805 69.401 42.5456C70.2474 42.351 71.0937 42.0916 72.0052 41.897C75.4557 41.0539 79.0364 40.1459 82.6823 39.2379C97.2656 35.606 113.346 31.6497 130.208 27.4341C147.07 23.2833 163.086 19.3271 177.734 15.6951C181.38 14.7871 184.961 13.944 188.411 13.036C190.169 12.582 191.862 12.1929 193.555 11.8037C194.401 11.6092 195.247 11.3497 196.094 11.22C196.94 11.0903 197.786 11.0903 198.633 11.22C200.325 11.4146 201.888 12.128 203.19 13.036C204.492 14.0088 205.534 15.306 206.12 16.7328C206.25 17.1219 206.445 17.4462 206.51 17.8354C206.641 18.2245 206.706 18.5488 206.836 18.9379C207.031 19.6513 207.227 20.4296 207.357 21.143C207.682 22.5699 208.073 23.9967 208.398 25.3587C211.133 36.3842 213.346 45.2696 214.844 51.4309C215.625 54.4791 216.211 56.8788 216.602 58.5002C216.797 59.2785 216.927 59.9271 217.057 60.3162C216.927 60.7053 216.992 60.8999 216.992 60.8999Z" fill="#E0E0E0"/>
<path d="M40.8203 16.3438L31.3151 23.5428L31.7708 37.3572L23.0469 30.4824L18.2292 34.5684L0 12.1281L40.8203 16.3438Z" fill="#EE464C"/>
<path d="M27.7344 26.5262C27.7344 26.9153 31.7708 37.3572 31.7708 37.3572L23.0469 30.4824L27.7344 26.5262Z" fill="#EE464C"/>
<g opacity="0.3">
<path opacity="0.3" d="M27.7344 26.5262C27.7344 26.9153 31.7708 37.3572 31.7708 37.3572L23.0469 30.4824L27.7344 26.5262Z" fill="black"/>
</g>
<path d="M0 12.1281L27.7344 26.5262L31.7708 37.3572L31.3151 23.5428L0 12.1281Z" fill="#EE464C"/>
<path opacity="0.1" d="M0 12.1281L27.7344 26.5262L31.7708 37.3572L31.3151 23.5428L0 12.1281Z" fill="black"/>
<path d="M52.2783 35.5411C52.2132 35.6709 51.1064 35.4763 49.7392 35.152C48.372 34.8277 47.2653 34.5683 47.3304 34.3737C47.3304 34.244 48.5022 34.3089 49.8694 34.6332C51.3017 34.9574 52.3434 35.4114 52.2783 35.5411Z" fill="#263238"/>
<path d="M61.5881 39.4974C61.523 39.6271 60.4813 39.1731 59.2443 38.5245C58.0073 37.876 57.0308 37.3571 57.0308 37.2274C57.0959 37.0977 58.2026 37.422 59.4396 38.0705C60.7417 38.7191 61.6532 39.3677 61.5881 39.4974Z" fill="#263238"/>
<path d="M69.6611 45.594C69.5309 45.7237 68.6845 45.0103 67.6428 44.1023C66.6012 43.1943 65.7548 42.416 65.8199 42.2863C65.885 42.1566 66.9267 42.7403 67.9684 43.6483C69.01 44.6211 69.7913 45.5291 69.6611 45.594Z" fill="#263238"/>
<path d="M75.781 53.5712C75.6508 53.6361 74.9998 52.7281 74.2185 51.5607C73.4373 50.3933 72.8513 49.4204 72.9815 49.3556C73.1118 49.2907 73.893 50.069 74.6743 51.2364C75.5206 52.4687 75.9112 53.5064 75.781 53.5712Z" fill="#263238"/>
<path d="M79.2966 63.0402C79.1664 63.0402 78.8408 62.0025 78.4502 60.6405C78.0596 59.2785 77.7992 58.2408 77.9294 58.176C78.0596 58.1111 78.5804 59.1488 78.9711 60.5108C79.3617 61.8728 79.4268 63.0402 79.2966 63.0402Z" fill="#263238"/>
<path d="M79.8177 73.0929C79.6875 73.0929 79.6875 71.9255 79.6875 70.5635C79.7526 69.2015 79.7526 68.0341 79.9479 68.0341C80.0781 68.0341 80.2734 69.1367 80.2734 70.5635C80.2083 71.9904 79.9479 73.0929 79.8177 73.0929Z" fill="#263238"/>
<path d="M77.2134 82.8214C77.0832 82.7566 77.4738 81.7189 77.9295 80.4217C78.3853 79.1246 78.7759 78.0869 78.9061 78.0869C79.0363 78.1518 78.9061 79.2543 78.3853 80.6163C77.9295 81.9134 77.3436 82.8863 77.2134 82.8214Z" fill="#263238"/>
<path d="M71.3541 90.9932C71.2239 90.8635 72.0051 90.0203 72.9166 88.9826C73.8281 87.9449 74.5442 87.1018 74.6744 87.1667C74.8046 87.2315 74.2187 88.2692 73.3072 89.3069C72.3307 90.4095 71.4192 91.058 71.3541 90.9932Z" fill="#263238"/>
<path d="M62.8252 96.4411C62.7601 96.3114 63.8017 95.7926 64.9736 95.144C66.2106 94.4954 67.1872 93.9766 67.3174 94.1063C67.3825 94.236 66.5361 94.9494 65.234 95.598C63.997 96.2466 62.8903 96.5708 62.8252 96.4411Z" fill="#263238"/>
<path d="M52.9946 98.5165C52.9946 98.3868 54.1014 98.2571 55.4686 98.0625C56.8358 97.8679 57.9425 97.7382 58.0076 97.9328C58.0727 98.0625 56.966 98.4517 55.5337 98.5814C54.1014 98.776 52.9946 98.6462 52.9946 98.5165Z" fill="#263238"/>
<path d="M43.0988 96.6357C43.1639 96.506 44.2055 96.8303 45.5727 97.2194C46.8748 97.6086 47.9816 97.9329 47.9816 98.0626C47.9816 98.1923 46.8097 98.1274 45.4425 97.7383C44.0102 97.3492 43.0337 96.7655 43.0988 96.6357Z" fill="#263238"/>
<path d="M36.0676 89.7609C36.1978 89.6961 36.6536 90.7338 37.4348 91.8364C38.2161 92.9389 38.9973 93.782 38.8671 93.9117C38.802 94.0415 37.8254 93.328 36.9791 92.1606C36.1978 90.9284 35.9374 89.7609 36.0676 89.7609Z" fill="#263238"/>
<path d="M40.3643 81.9134C40.4294 82.0431 39.3226 82.3674 38.2159 83.2105C37.1091 83.9888 36.5232 84.9616 36.393 84.8967C36.2627 84.8319 36.6534 83.6645 37.8903 82.8213C39.1273 81.8485 40.2992 81.7836 40.3643 81.9134Z" fill="#263238"/>
<path d="M49.0229 85.4804C48.8927 85.5452 48.3068 84.6372 47.2651 83.6644C46.2885 82.7564 45.2469 82.3024 45.312 82.1727C45.312 82.043 46.549 82.3024 47.6557 83.2752C48.6974 84.3129 49.1531 85.4155 49.0229 85.4804Z" fill="#263238"/>
<path d="M49.3485 95.2738C49.2183 95.2089 49.5438 94.1712 49.8042 92.8093C50.0646 91.4473 50.1297 90.3447 50.2599 90.3447C50.3902 90.3447 50.5855 91.5121 50.3251 92.939C50.0646 94.301 49.4787 95.3386 49.3485 95.2738Z" fill="#263238"/>
<path d="M42.7731 102.797C42.7079 102.667 43.5543 101.954 44.596 101.046C45.6376 100.138 46.484 99.3597 46.6142 99.4894C46.7444 99.5543 46.0283 100.527 44.9866 101.435C43.8798 102.343 42.8382 102.862 42.7731 102.797Z" fill="#263238"/>
<path d="M33.7887 107.402C33.7236 107.272 34.7002 106.688 36.0023 106.105C37.2392 105.521 38.346 105.132 38.4111 105.261C38.4762 105.391 37.4997 105.975 36.1976 106.559C34.8955 107.207 33.8538 107.531 33.7887 107.402Z" fill="#263238"/>
<path d="M24.7391 112.007C24.674 111.877 25.5855 111.228 26.7574 110.45C27.9943 109.737 29.1011 109.348 29.1011 109.477C29.1662 109.607 28.1896 110.191 27.0178 110.904C25.8459 111.618 24.8042 112.136 24.7391 112.007Z" fill="#263238"/>
<path d="M17.1222 118.557C16.992 118.492 17.7082 117.519 18.6847 116.547C19.6613 115.574 20.6379 114.925 20.703 114.99C20.7681 115.12 19.9868 115.898 19.0103 116.871C18.0337 117.909 17.1873 118.687 17.1222 118.557Z" fill="#263238"/>
<path d="M11.2629 126.859C11.1327 126.794 11.5884 125.756 12.3046 124.524C13.0207 123.357 13.802 122.449 13.9322 122.578C14.0624 122.643 13.4764 123.616 12.7603 124.848C12.0441 125.951 11.3931 126.924 11.2629 126.859Z" fill="#263238"/>
<path d="M7.6167 136.198C7.4865 136.133 7.6167 135.031 8.07243 133.669C8.52816 132.307 9.04899 131.334 9.1792 131.399C9.30941 131.464 8.98389 132.566 8.59327 133.863C8.13754 135.225 7.74691 136.263 7.6167 136.198Z" fill="#263238"/>
<path d="M6.24974 146.186C6.11953 146.186 5.98932 145.019 6.05443 143.657C6.11953 142.23 6.44505 141.127 6.57526 141.192C6.70547 141.192 6.70547 142.359 6.57526 143.721C6.51016 145.083 6.44505 146.186 6.24974 146.186Z" fill="#263238"/>
<path d="M7.61699 156.174C7.48678 156.239 7.09616 155.136 6.83574 153.774C6.51022 152.412 6.51022 151.245 6.64043 151.245C6.77064 151.245 7.03106 152.347 7.35658 153.644C7.61699 155.006 7.7472 156.174 7.61699 156.174Z" fill="#263238"/>
<path d="M11.5232 165.513C11.393 165.578 10.742 164.67 10.091 163.373C9.43991 162.14 9.11439 161.038 9.2446 160.973C9.37481 160.908 9.89564 161.881 10.5467 163.178C11.1977 164.41 11.6535 165.383 11.5232 165.513Z" fill="#263238"/>
<path d="M17.578 173.555C17.4477 173.685 16.6014 172.907 15.6899 171.869C14.7785 170.766 14.1925 169.794 14.3227 169.729C14.453 169.664 15.2342 170.507 16.0806 171.545C16.992 172.582 17.7082 173.426 17.578 173.555Z" fill="#263238"/>
<path d="M25.3906 179.976C25.3255 180.106 24.2838 179.587 23.112 178.744C21.9401 177.901 21.1588 177.122 21.289 176.993C21.3542 176.863 22.3307 177.511 23.4375 178.355C24.5443 179.133 25.4557 179.846 25.3906 179.976Z" fill="#263238"/>
<path d="M34.505 184.321C34.4399 184.451 33.3332 184.257 32.0311 183.673C30.729 183.154 29.7524 182.57 29.8175 182.441C29.8826 182.311 30.9243 182.7 32.2264 183.219C33.5285 183.738 34.5701 184.192 34.505 184.321Z" fill="#263238"/>
<path d="M32.2469 160.541L21.7314 157.1L19.5776 163.632L30.0931 167.073L32.2469 160.541Z" fill="#EE464C"/>
<g opacity="0.3">
<path opacity="0.3" d="M32.2469 160.541L21.7314 157.1L19.5776 163.632L30.0931 167.073L32.2469 160.541Z" fill="black"/>
</g>
<path d="M32.227 160.519C32.2921 160.649 29.5577 161.751 26.1072 162.984L25.9119 163.049L25.7817 162.919C25.7166 162.854 25.6515 162.789 25.5864 162.659C23.3077 159.676 21.5499 157.147 21.6801 157.017C21.8103 156.952 23.7635 159.287 26.0421 162.335C26.1072 162.4 26.1723 162.465 26.2374 162.595L25.9119 162.53C29.4275 161.297 32.1619 160.389 32.227 160.519Z" fill="#EE464C"/>
<g opacity="0.1">
<g opacity="0.1">
<path opacity="0.1" d="M32.227 160.519C32.2921 160.649 29.5577 161.751 26.1072 162.984L25.9119 163.049L25.7817 162.919C25.7166 162.854 25.6515 162.789 25.5864 162.659C23.3077 159.676 21.5499 157.147 21.6801 157.017C21.8103 156.952 23.7635 159.287 26.0421 162.335C26.1072 162.4 26.1723 162.465 26.2374 162.595L25.9119 162.53C29.4275 161.297 32.1619 160.389 32.227 160.519Z" fill="black"/>
</g>
</g>
<path d="M24.7399 161.103C24.805 161.233 23.6982 161.881 22.2659 162.595C20.8336 163.308 19.5966 163.762 19.5315 163.632C19.4664 163.503 20.5732 162.854 22.0055 162.141C23.5029 161.427 24.6748 160.973 24.7399 161.103Z" fill="#EE464C"/>
<g opacity="0.1">
<g opacity="0.1">
<path opacity="0.1" d="M24.7399 161.103C24.805 161.233 23.6982 161.881 22.2659 162.595C20.8336 163.308 19.5966 163.762 19.5315 163.632C19.4664 163.503 20.5732 162.854 22.0055 162.141C23.5029 161.427 24.6748 160.973 24.7399 161.103Z" fill="black"/>
</g>
</g>
<path d="M30.2738 167.134C30.1436 167.199 29.5576 166.097 28.9066 164.735C28.2555 163.308 27.8649 162.076 28.0602 162.076C28.1904 162.076 28.7764 163.113 29.4274 164.475C30.0133 165.902 30.404 167.07 30.2738 167.134Z" fill="#EE464C"/>
<g opacity="0.1">
<g opacity="0.1">
<path opacity="0.1" d="M30.2738 167.134C30.1436 167.199 29.5576 166.097 28.9066 164.735C28.2555 163.308 27.8649 162.076 28.0602 162.076C28.1904 162.076 28.7764 163.113 29.4274 164.475C30.0133 165.902 30.404 167.07 30.2738 167.134Z" fill="black"/>
</g>
</g>
<path d="M75.0654 186.072C75.0654 186.137 74.6748 186.267 73.8284 186.591C72.917 186.916 71.8102 187.37 70.443 187.888C67.5784 188.991 63.6071 190.418 59.18 192.039L58.9847 192.104L58.8545 191.974C58.7243 191.78 58.529 191.585 58.3988 191.391C55.4691 187.499 52.7998 183.997 50.9118 181.403C50.0003 180.171 49.2842 179.133 48.6982 178.355C48.1774 177.641 47.917 177.187 47.917 177.187C47.917 177.187 48.2425 177.511 48.8285 178.225C49.4795 179.003 50.2607 179.976 51.1722 181.208C53.1253 183.738 55.8597 187.24 58.7894 191.066C58.9196 191.261 59.1149 191.455 59.2451 191.65L58.9196 191.585C63.3467 189.964 67.318 188.537 70.2477 187.564C71.6149 187.11 72.7868 186.721 73.6982 186.397C74.6097 186.137 75.0654 186.008 75.0654 186.072Z" fill="#EE464C"/>
<g opacity="0.2">
<g opacity="0.5">
<path d="M75.0654 186.072C75.0654 186.137 74.6748 186.267 73.8284 186.591C72.917 186.916 71.8102 187.37 70.443 187.888C67.5784 188.991 63.6071 190.418 59.18 192.039L58.9847 192.104L58.8545 191.974C58.7243 191.78 58.529 191.585 58.3988 191.391C55.4691 187.499 52.7998 183.997 50.9118 181.403C50.0003 180.171 49.2842 179.133 48.6982 178.355C48.1774 177.641 47.917 177.187 47.917 177.187C47.917 177.187 48.2425 177.511 48.8285 178.225C49.4795 179.003 50.2607 179.976 51.1722 181.208C53.1253 183.738 55.8597 187.24 58.7894 191.066C58.9196 191.261 59.1149 191.455 59.2451 191.65L58.9196 191.585C63.3467 189.964 67.318 188.537 70.2477 187.564C71.6149 187.11 72.7868 186.721 73.6982 186.397C74.6097 186.137 75.0654 186.008 75.0654 186.072Z" fill="black"/>
</g>
</g>
<path d="M55.8596 187.499C55.9247 187.629 52.995 189.186 49.2841 191.002C45.5732 192.818 42.5784 194.115 42.5133 193.985C42.4482 193.855 45.3779 192.299 49.0888 190.483C52.7346 188.667 55.7945 187.37 55.8596 187.499Z" fill="#EE464C"/>
<g opacity="0.5">
<g opacity="0.2">
<path d="M55.8596 187.499C55.9247 187.629 52.995 189.186 49.2841 191.002C45.5732 192.818 42.5784 194.115 42.5133 193.985C42.4482 193.855 45.3779 192.299 49.0888 190.483C52.7346 188.667 55.7945 187.37 55.8596 187.499Z" fill="black"/>
</g>
</g>
<path d="M69.7109 202.215C69.5885 202.276 68.3036 199.594 66.8351 196.181C65.3667 192.828 64.2653 190.025 64.3877 189.964C64.5101 189.903 65.795 192.585 67.2634 195.998C68.7319 199.35 69.8332 202.154 69.7109 202.215Z" fill="#EE464C"/>
<g opacity="0.5">
<g opacity="0.2">
<path d="M69.7109 202.215C69.5885 202.276 68.3036 199.594 66.8351 196.181C65.3667 192.828 64.2653 190.025 64.3877 189.964C64.5101 189.903 65.795 192.585 67.2634 195.998C68.7319 199.35 69.8332 202.154 69.7109 202.215Z" fill="black"/>
</g>
</g>
<path d="M49.5442 181.338C47.6562 182.7 45.052 182.311 43.6197 180.43C42.2525 178.549 42.6431 175.955 44.5312 174.528C46.4192 173.166 49.0233 173.555 50.4556 175.436C51.8228 177.317 51.4322 179.976 49.5442 181.338Z" fill="#263238"/>
<path d="M49.6744 177.187C49.7395 177.252 48.4374 178.03 46.8098 178.938C46.5494 179.068 46.3541 179.198 46.1588 179.327L46.0286 179.392L45.9635 179.263C45.2474 177.965 44.7265 176.993 44.7916 176.993C44.8567 176.928 45.4427 177.901 46.1588 179.133L45.9635 179.068C46.1588 178.938 46.4192 178.809 46.6145 178.679C48.3072 177.771 49.6744 177.122 49.6744 177.187Z" fill="white"/>
<path d="M57.7235 163.464L43.5586 158.829L40.6733 167.579L54.8382 172.214L57.7235 163.464Z" fill="#EE464C"/>
<g opacity="0.2">
<path opacity="0.2" d="M57.7235 163.464L43.5586 158.829L40.6733 167.579L54.8382 172.214L57.7235 163.464Z" fill="black"/>
</g>
<path d="M57.7472 163.502C57.7472 163.502 57.5519 163.632 57.0962 163.762C56.6405 163.956 56.0545 164.151 55.3384 164.475C53.841 165.059 51.7577 165.837 49.479 166.68L49.4139 166.745L49.3488 166.68C49.2837 166.551 49.2186 166.486 49.0884 166.356C47.5259 164.346 46.1587 162.465 45.1821 161.103C44.7264 160.454 44.3358 159.935 44.0103 159.481C43.7498 159.092 43.6196 158.898 43.6196 158.898C43.6196 158.898 43.8149 159.092 44.0754 159.417C44.4009 159.806 44.7915 160.325 45.3123 160.973C46.354 162.27 47.7863 164.086 49.2837 166.162C49.3488 166.291 49.4139 166.356 49.5441 166.486L49.4139 166.421C51.7577 165.578 53.841 164.864 55.3384 164.346C56.0545 164.086 56.6405 163.892 57.1613 163.762C57.4868 163.502 57.6821 163.438 57.7472 163.502Z" fill="#EE464C"/>
<g opacity="0.2">
<g opacity="0.2">
<path opacity="0.2" d="M57.7472 163.502C57.7472 163.502 57.5519 163.632 57.0962 163.762C56.6405 163.956 56.0545 164.151 55.3384 164.475C53.841 165.059 51.7577 165.837 49.479 166.68L49.4139 166.745L49.3488 166.68C49.2837 166.551 49.2186 166.486 49.0884 166.356C47.5259 164.346 46.1587 162.465 45.1821 161.103C44.7264 160.454 44.3358 159.935 44.0103 159.481C43.7498 159.092 43.6196 158.898 43.6196 158.898C43.6196 158.898 43.8149 159.092 44.0754 159.417C44.4009 159.806 44.7915 160.325 45.3123 160.973C46.354 162.27 47.7863 164.086 49.2837 166.162C49.3488 166.291 49.4139 166.356 49.5441 166.486L49.4139 166.421C51.7577 165.578 53.841 164.864 55.3384 164.346C56.0545 164.086 56.6405 163.892 57.1613 163.762C57.4868 163.502 57.6821 163.438 57.7472 163.502Z" fill="#EE464C"/>
</g>
</g>
<path d="M47.6563 164.216C47.7214 164.281 46.1589 165.124 44.2057 166.032C42.2526 166.94 40.6901 167.653 40.625 167.589C40.5599 167.524 42.1224 166.681 44.0755 165.773C46.0287 164.865 47.5912 164.151 47.6563 164.216Z" fill="#EE464C"/>
<g opacity="0.2">
<g opacity="0.2">
<path opacity="0.2" d="M47.6563 164.216C47.7214 164.281 46.1589 165.124 44.2057 166.032C42.2526 166.94 40.6901 167.653 40.625 167.589C40.5599 167.524 42.1224 166.681 44.0755 165.773C46.0287 164.865 47.5912 164.151 47.6563 164.216Z" fill="#EE464C"/>
</g>
</g>
<path d="M55.0783 172.323C55.0132 172.323 54.2971 170.831 53.4507 168.95C52.6044 167.069 52.0184 165.513 52.0835 165.513C52.1486 165.513 52.8648 167.005 53.7111 168.885C54.5575 170.766 55.1434 172.323 55.0783 172.323Z" fill="#EE464C"/>
<g opacity="0.2">
<g opacity="0.2">
<path opacity="0.2" d="M55.0783 172.323C55.0132 172.323 54.2971 170.831 53.4507 168.95C52.6044 167.069 52.0184 165.513 52.0835 165.513C52.1486 165.513 52.8648 167.005 53.7111 168.885C54.5575 170.766 55.1434 172.323 55.0783 172.323Z" fill="#EE464C"/>
</g>
</g>
<path d="M208.724 19.6514C206.576 28.0827 197.982 33.2063 189.518 31.0661C181.055 28.9258 175.912 20.3648 178.06 11.9335C180.209 3.43733 188.802 -1.62146 197.266 0.518798C205.729 2.65905 210.873 11.2201 208.724 19.6514Z" fill="#18191F"/>
<path d="M199.284 7.19916C199.545 7.32888 197.787 12.5822 195.248 19.003C194.857 19.911 194.532 20.819 194.206 21.727L194.011 22.181L193.555 21.9864C188.412 20.0407 184.701 18.4193 184.766 18.1599C184.831 17.9004 188.737 19.1327 193.946 21.0135L193.295 21.3378C193.62 20.4947 193.946 19.5867 194.336 18.6139C196.745 12.1931 198.959 7.13431 199.284 7.19916Z" fill="white"/>
</g>
<defs>
<clipPath id="clip0">
<rect width="250" height="203" fill="white"/>
</clipPath>
</defs>
</svg>
