<svg width="55" height="65" viewBox="0 0 55 65" fill="none" xmlns="http://www.w3.org/2000/svg">
<path fill-rule="evenodd" clip-rule="evenodd" d="M12.3419 63.456C11.128 64.2147 9.72526 64.617 8.29375 64.617C4.0754 64.617 0.655762 61.1973 0.655762 56.979V8.16074C0.655762 6.72923 1.05805 5.32653 1.81675 4.11261C4.05247 0.535465 8.76473 -0.55198 12.3419 1.68374L51.3965 26.0929C52.38 26.7076 53.2106 27.5382 53.8253 28.5217C56.0611 32.0989 54.9736 36.8111 51.3965 39.0469L12.3419 63.456Z" fill="black"/>
<mask id="mask0" mask-type="alpha" maskUnits="userSpaceOnUse" x="0" y="0" width="55" height="65">
<path fill-rule="evenodd" clip-rule="evenodd" d="M12.3419 63.456C11.128 64.2147 9.72526 64.617 8.29375 64.617C4.0754 64.617 0.655762 61.1973 0.655762 56.979V8.16074C0.655762 6.72923 1.05805 5.32653 1.81675 4.11261C4.05247 0.535465 8.76473 -0.55198 12.3419 1.68374L51.3965 26.0929C52.38 26.7076 53.2106 27.5382 53.8253 28.5217C56.0611 32.0989 54.9736 36.8111 51.3965 39.0469L12.3419 63.456Z" fill="white"/>
</mask>
<g mask="url(#mask0)">
<rect x="-14.6201" y="-5.62012" width="76.3799" height="76.3799" fill="#EE464C"/>
</g>
</svg>
